<mxfile host="app.diagrams.net" agent="Mozilla/5.0 (Macintosh; Intel Mac OS X 10_15_7) AppleWebKit/537.36 (KHTML, like Gecko) Chrome/135.0.0.0 Safari/537.36" version="26.1.1">
  <diagram name="Page-1" id="U5n7xN84hakL3ZgfuC4N">
    <mxGraphModel dx="817" dy="520" grid="1" gridSize="10" guides="1" tooltips="1" connect="1" arrows="1" fold="1" page="1" pageScale="1" pageWidth="850" pageHeight="1100" math="0" shadow="0">
      <root>
        <mxCell id="0" />
        <mxCell id="1" parent="0" />
        <mxCell id="0VALnksqHh3Q-iaRCEPl-7" style="edgeStyle=orthogonalEdgeStyle;rounded=0;orthogonalLoop=1;jettySize=auto;html=1;exitX=1;exitY=0.5;exitDx=0;exitDy=0;entryX=0;entryY=0.5;entryDx=0;entryDy=0;" edge="1" parent="1" source="0VALnksqHh3Q-iaRCEPl-1" target="0VALnksqHh3Q-iaRCEPl-6">
          <mxGeometry relative="1" as="geometry">
            <Array as="points">
              <mxPoint x="260" y="135" />
              <mxPoint x="260" y="175" />
            </Array>
          </mxGeometry>
        </mxCell>
        <mxCell id="0VALnksqHh3Q-iaRCEPl-1" value="&lt;span style=&quot;-webkit-user-drag: none; -webkit-tap-highlight-color: transparent; margin: 0px; padding: 0px; user-select: text; background-position: 0px 100%; background-repeat: repeat-x; background-image: url(&amp;quot;data:image/svg+xml;base64,PHN2ZyB4bWxucz0iaHR0cDovL3d3dy53My5vcmcvMjAwMC9zdmciIHdpZHRoPSI1IiBoZWlnaHQ9IjMiPjxnIGZpbGw9Im5vbmUiIGZpbGwtcnVsZT0iZXZlbm9kZCIgc3Ryb2tlPSIjOTlBQUY1IiBzdHJva2UtbGluZWNhcD0icm91bmQiPjxwYXRoIGQ9Ik0wIC41aDVNMCAyLjVoNSIvPjwvZz48L3N2Zz4=&amp;quot;); border-bottom: 1px solid transparent; font-family: &amp;quot;Open Sans&amp;quot;, &amp;quot;Open Sans_EmbeddedFont&amp;quot;, &amp;quot;Open Sans_MSFontService&amp;quot;, sans-serif; font-size: 14.6667px; font-variant-ligatures: none; text-align: left; white-space-collapse: preserve;&quot; class=&quot;NormalTextRun ContextualSpellingAndGrammarErrorV2Themed SCXW184423691 BCX0&quot;&gt;IPSL&lt;/span&gt;" style="shape=parallelogram;perimeter=parallelogramPerimeter;whiteSpace=wrap;html=1;fixedSize=1;fillColor=#f5f5f5;fontColor=#333333;strokeColor=#666666;labelBackgroundColor=none;" vertex="1" parent="1">
          <mxGeometry x="60" y="120" width="160" height="30" as="geometry" />
        </mxCell>
        <mxCell id="0VALnksqHh3Q-iaRCEPl-9" style="edgeStyle=orthogonalEdgeStyle;rounded=0;orthogonalLoop=1;jettySize=auto;html=1;exitX=1;exitY=0.5;exitDx=0;exitDy=0;entryX=0;entryY=0.5;entryDx=0;entryDy=0;" edge="1" parent="1" source="0VALnksqHh3Q-iaRCEPl-2" target="0VALnksqHh3Q-iaRCEPl-6">
          <mxGeometry relative="1" as="geometry" />
        </mxCell>
        <mxCell id="0VALnksqHh3Q-iaRCEPl-2" value="&lt;div style=&quot;text-align: left;&quot;&gt;&lt;span style=&quot;color: light-dark(rgb(0, 0, 0), rgb(255, 255, 255)); font-size: 14.6667px; font-variant-ligatures: none; white-space-collapse: preserve;&quot;&gt;&lt;font face=&quot;Open Sans, Open Sans_EmbeddedFont, Open Sans_MSFontService, sans-serif&quot;&gt;MRI&lt;/font&gt;&lt;/span&gt;&lt;/div&gt;" style="shape=parallelogram;perimeter=parallelogramPerimeter;whiteSpace=wrap;html=1;fixedSize=1;fillColor=#f5f5f5;fontColor=#333333;strokeColor=#666666;labelBackgroundColor=none;" vertex="1" parent="1">
          <mxGeometry x="60" y="160" width="160" height="30" as="geometry" />
        </mxCell>
        <mxCell id="0VALnksqHh3Q-iaRCEPl-8" style="edgeStyle=orthogonalEdgeStyle;rounded=0;orthogonalLoop=1;jettySize=auto;html=1;exitX=1;exitY=0.75;exitDx=0;exitDy=0;entryX=0;entryY=0.5;entryDx=0;entryDy=0;" edge="1" parent="1" source="0VALnksqHh3Q-iaRCEPl-3" target="0VALnksqHh3Q-iaRCEPl-6">
          <mxGeometry relative="1" as="geometry">
            <Array as="points">
              <mxPoint x="260" y="221" />
              <mxPoint x="260" y="175" />
            </Array>
          </mxGeometry>
        </mxCell>
        <mxCell id="0VALnksqHh3Q-iaRCEPl-3" value="&lt;div style=&quot;text-align: left;&quot;&gt;&lt;span style=&quot;color: light-dark(rgb(0, 0, 0), rgb(255, 255, 255)); font-size: 14.6667px; font-variant-ligatures: none; white-space-collapse: preserve;&quot;&gt;&lt;font face=&quot;Open Sans, Open Sans_EmbeddedFont, Open Sans_MSFontService, sans-serif&quot;&gt;NOR&lt;/font&gt;&lt;/span&gt;&lt;/div&gt;" style="shape=parallelogram;perimeter=parallelogramPerimeter;whiteSpace=wrap;html=1;fixedSize=1;fillColor=#f5f5f5;fontColor=#333333;strokeColor=#666666;labelBackgroundColor=none;" vertex="1" parent="1">
          <mxGeometry x="60" y="200" width="160" height="30" as="geometry" />
        </mxCell>
        <mxCell id="0VALnksqHh3Q-iaRCEPl-11" style="edgeStyle=orthogonalEdgeStyle;rounded=0;orthogonalLoop=1;jettySize=auto;html=1;exitX=1;exitY=0.5;exitDx=0;exitDy=0;entryX=0;entryY=0.5;entryDx=0;entryDy=0;" edge="1" parent="1" source="0VALnksqHh3Q-iaRCEPl-6" target="0VALnksqHh3Q-iaRCEPl-10">
          <mxGeometry relative="1" as="geometry" />
        </mxCell>
        <mxCell id="0VALnksqHh3Q-iaRCEPl-6" value="&lt;span style=&quot;-webkit-user-drag: none; -webkit-tap-highlight-color: transparent; margin: 0px; padding: 0px; user-select: text; background-position: 0px 100%; background-repeat: repeat-x; background-image: url(&amp;quot;data:image/svg+xml;base64,PHN2ZyB4bWxucz0iaHR0cDovL3d3dy53My5vcmcvMjAwMC9zdmciIHdpZHRoPSI1IiBoZWlnaHQ9IjMiPjxnIGZpbGw9Im5vbmUiIGZpbGwtcnVsZT0iZXZlbm9kZCIgc3Ryb2tlPSIjOTlBQUY1IiBzdHJva2UtbGluZWNhcD0icm91bmQiPjxwYXRoIGQ9Ik0wIC41aDVNMCAyLjVoNSIvPjwvZz48L3N2Zz4=&amp;quot;); border-bottom: 1px solid transparent; font-family: &amp;quot;Open Sans&amp;quot;, &amp;quot;Open Sans_EmbeddedFont&amp;quot;, &amp;quot;Open Sans_MSFontService&amp;quot;, sans-serif; font-size: 14.6667px; font-variant-ligatures: none; text-align: left; white-space-collapse: preserve;&quot; class=&quot;NormalTextRun ContextualSpellingAndGrammarErrorV2Themed SCXW184423691 BCX0&quot;&gt;Average Suitability&lt;/span&gt;" style="shape=parallelogram;perimeter=parallelogramPerimeter;whiteSpace=wrap;html=1;fixedSize=1;fillColor=#b1ddf0;strokeColor=#10739e;labelBackgroundColor=none;" vertex="1" parent="1">
          <mxGeometry x="301" y="160" width="160" height="30" as="geometry" />
        </mxCell>
        <mxCell id="0VALnksqHh3Q-iaRCEPl-12" value="Yes = 1" style="edgeStyle=orthogonalEdgeStyle;rounded=0;orthogonalLoop=1;jettySize=auto;html=1;exitX=1;exitY=0.5;exitDx=0;exitDy=0;entryX=0.5;entryY=0;entryDx=0;entryDy=0;" edge="1" parent="1" source="0VALnksqHh3Q-iaRCEPl-10" target="0VALnksqHh3Q-iaRCEPl-16">
          <mxGeometry relative="1" as="geometry">
            <mxPoint x="150" y="310" as="targetPoint" />
            <Array as="points">
              <mxPoint x="590" y="175" />
              <mxPoint x="590" y="250" />
              <mxPoint x="150" y="250" />
            </Array>
          </mxGeometry>
        </mxCell>
        <mxCell id="0VALnksqHh3Q-iaRCEPl-10" value="&lt;font style=&quot;color: rgb(128, 128, 128);&quot;&gt;Does suitability exceed baseline crop avg?&lt;/font&gt;" style="rhombus;whiteSpace=wrap;html=1;fillColor=light-dark(#ffe01a, #281d00);strokeColor=#d6b656;" vertex="1" parent="1">
          <mxGeometry x="490" y="135" width="80" height="80" as="geometry" />
        </mxCell>
        <mxCell id="0VALnksqHh3Q-iaRCEPl-31" style="edgeStyle=orthogonalEdgeStyle;rounded=0;orthogonalLoop=1;jettySize=auto;html=1;exitX=1;exitY=0.5;exitDx=0;exitDy=0;entryX=0;entryY=0.5;entryDx=0;entryDy=0;" edge="1" parent="1" source="0VALnksqHh3Q-iaRCEPl-14" target="0VALnksqHh3Q-iaRCEPl-18">
          <mxGeometry relative="1" as="geometry">
            <mxPoint x="320" y="310" as="targetPoint" />
            <Array as="points">
              <mxPoint x="260" y="345" />
              <mxPoint x="260" y="320" />
            </Array>
          </mxGeometry>
        </mxCell>
        <mxCell id="0VALnksqHh3Q-iaRCEPl-14" value="&lt;span style=&quot;font-family: &amp;quot;Open Sans&amp;quot;, &amp;quot;Open Sans_EmbeddedFont&amp;quot;, &amp;quot;Open Sans_MSFontService&amp;quot;, sans-serif; font-size: 14.6667px; font-variant-ligatures: none; text-align: left; white-space-collapse: preserve;&quot;&gt;County Shapefile&lt;/span&gt;" style="shape=parallelogram;perimeter=parallelogramPerimeter;whiteSpace=wrap;html=1;fixedSize=1;fillColor=#d0cee2;strokeColor=#56517e;labelBackgroundColor=none;" vertex="1" parent="1">
          <mxGeometry x="70" y="330" width="160" height="30" as="geometry" />
        </mxCell>
        <mxCell id="0VALnksqHh3Q-iaRCEPl-30" style="edgeStyle=orthogonalEdgeStyle;rounded=0;orthogonalLoop=1;jettySize=auto;html=1;exitX=1;exitY=0.5;exitDx=0;exitDy=0;entryX=0;entryY=0.5;entryDx=0;entryDy=0;" edge="1" parent="1" source="0VALnksqHh3Q-iaRCEPl-16" target="0VALnksqHh3Q-iaRCEPl-18">
          <mxGeometry relative="1" as="geometry">
            <mxPoint x="320" y="310" as="targetPoint" />
            <Array as="points">
              <mxPoint x="260" y="305" />
              <mxPoint x="260" y="320" />
            </Array>
          </mxGeometry>
        </mxCell>
        <mxCell id="0VALnksqHh3Q-iaRCEPl-16" value="&lt;span style=&quot;font-family: &amp;quot;Open Sans&amp;quot;, &amp;quot;Open Sans_EmbeddedFont&amp;quot;, &amp;quot;Open Sans_MSFontService&amp;quot;, sans-serif; font-size: 14.6667px; font-variant-ligatures: none; text-align: left; white-space-collapse: preserve;&quot;&gt;Conditional raster&lt;/span&gt;" style="shape=parallelogram;perimeter=parallelogramPerimeter;whiteSpace=wrap;html=1;fixedSize=1;fillColor=#b0e3e6;strokeColor=#0e8088;labelBackgroundColor=none;" vertex="1" parent="1">
          <mxGeometry x="70" y="290" width="160" height="30" as="geometry" />
        </mxCell>
        <mxCell id="0VALnksqHh3Q-iaRCEPl-17" value="Zonal Statistics" style="shape=table;startSize=30;container=1;collapsible=0;childLayout=tableLayout;strokeColor=default;fontSize=14;" vertex="1" parent="1">
          <mxGeometry x="280" y="280" width="160" height="77" as="geometry" />
        </mxCell>
        <mxCell id="0VALnksqHh3Q-iaRCEPl-18" value="" style="shape=tableRow;horizontal=0;startSize=0;swimlaneHead=0;swimlaneBody=0;strokeColor=inherit;top=0;left=0;bottom=0;right=0;collapsible=0;dropTarget=0;fillColor=none;points=[[0,0.5],[1,0.5]];portConstraint=eastwest;fontSize=14;" vertex="1" parent="0VALnksqHh3Q-iaRCEPl-17">
          <mxGeometry y="30" width="160" height="20" as="geometry" />
        </mxCell>
        <mxCell id="0VALnksqHh3Q-iaRCEPl-19" value="County" style="shape=partialRectangle;html=1;whiteSpace=wrap;connectable=0;strokeColor=inherit;overflow=hidden;fillColor=none;top=0;left=0;bottom=0;right=0;pointerEvents=1;fontSize=14;" vertex="1" parent="0VALnksqHh3Q-iaRCEPl-18">
          <mxGeometry width="60" height="20" as="geometry">
            <mxRectangle width="60" height="20" as="alternateBounds" />
          </mxGeometry>
        </mxCell>
        <mxCell id="0VALnksqHh3Q-iaRCEPl-20" value="Count" style="shape=partialRectangle;html=1;whiteSpace=wrap;connectable=0;strokeColor=inherit;overflow=hidden;fillColor=none;top=0;left=0;bottom=0;right=0;pointerEvents=1;fontSize=14;" vertex="1" parent="0VALnksqHh3Q-iaRCEPl-18">
          <mxGeometry x="60" width="60" height="20" as="geometry">
            <mxRectangle width="60" height="20" as="alternateBounds" />
          </mxGeometry>
        </mxCell>
        <mxCell id="0VALnksqHh3Q-iaRCEPl-21" value="Sum" style="shape=partialRectangle;html=1;whiteSpace=wrap;connectable=0;strokeColor=inherit;overflow=hidden;fillColor=none;top=0;left=0;bottom=0;right=0;pointerEvents=1;fontSize=14;" vertex="1" parent="0VALnksqHh3Q-iaRCEPl-18">
          <mxGeometry x="120" width="40" height="20" as="geometry">
            <mxRectangle width="40" height="20" as="alternateBounds" />
          </mxGeometry>
        </mxCell>
        <mxCell id="0VALnksqHh3Q-iaRCEPl-22" value="" style="shape=tableRow;horizontal=0;startSize=0;swimlaneHead=0;swimlaneBody=0;strokeColor=inherit;top=0;left=0;bottom=0;right=0;collapsible=0;dropTarget=0;fillColor=none;points=[[0,0.5],[1,0.5]];portConstraint=eastwest;fontSize=14;" vertex="1" parent="0VALnksqHh3Q-iaRCEPl-17">
          <mxGeometry y="50" width="160" height="14" as="geometry" />
        </mxCell>
        <mxCell id="0VALnksqHh3Q-iaRCEPl-23" value="" style="shape=partialRectangle;html=1;whiteSpace=wrap;connectable=0;strokeColor=inherit;overflow=hidden;fillColor=none;top=0;left=0;bottom=0;right=0;pointerEvents=1;fontSize=14;" vertex="1" parent="0VALnksqHh3Q-iaRCEPl-22">
          <mxGeometry width="60" height="14" as="geometry">
            <mxRectangle width="60" height="14" as="alternateBounds" />
          </mxGeometry>
        </mxCell>
        <mxCell id="0VALnksqHh3Q-iaRCEPl-24" value="" style="shape=partialRectangle;html=1;whiteSpace=wrap;connectable=0;strokeColor=inherit;overflow=hidden;fillColor=none;top=0;left=0;bottom=0;right=0;pointerEvents=1;fontSize=14;" vertex="1" parent="0VALnksqHh3Q-iaRCEPl-22">
          <mxGeometry x="60" width="60" height="14" as="geometry">
            <mxRectangle width="60" height="14" as="alternateBounds" />
          </mxGeometry>
        </mxCell>
        <mxCell id="0VALnksqHh3Q-iaRCEPl-25" value="" style="shape=partialRectangle;html=1;whiteSpace=wrap;connectable=0;strokeColor=inherit;overflow=hidden;fillColor=none;top=0;left=0;bottom=0;right=0;pointerEvents=1;fontSize=14;" vertex="1" parent="0VALnksqHh3Q-iaRCEPl-22">
          <mxGeometry x="120" width="40" height="14" as="geometry">
            <mxRectangle width="40" height="14" as="alternateBounds" />
          </mxGeometry>
        </mxCell>
        <mxCell id="0VALnksqHh3Q-iaRCEPl-26" value="" style="shape=tableRow;horizontal=0;startSize=0;swimlaneHead=0;swimlaneBody=0;strokeColor=inherit;top=0;left=0;bottom=0;right=0;collapsible=0;dropTarget=0;fillColor=none;points=[[0,0.5],[1,0.5]];portConstraint=eastwest;fontSize=14;" vertex="1" parent="0VALnksqHh3Q-iaRCEPl-17">
          <mxGeometry y="64" width="160" height="13" as="geometry" />
        </mxCell>
        <mxCell id="0VALnksqHh3Q-iaRCEPl-27" value="" style="shape=partialRectangle;html=1;whiteSpace=wrap;connectable=0;strokeColor=inherit;overflow=hidden;fillColor=none;top=0;left=0;bottom=0;right=0;pointerEvents=1;fontSize=14;" vertex="1" parent="0VALnksqHh3Q-iaRCEPl-26">
          <mxGeometry width="60" height="13" as="geometry">
            <mxRectangle width="60" height="13" as="alternateBounds" />
          </mxGeometry>
        </mxCell>
        <mxCell id="0VALnksqHh3Q-iaRCEPl-28" value="" style="shape=partialRectangle;html=1;whiteSpace=wrap;connectable=0;strokeColor=inherit;overflow=hidden;fillColor=none;top=0;left=0;bottom=0;right=0;pointerEvents=1;fontSize=14;" vertex="1" parent="0VALnksqHh3Q-iaRCEPl-26">
          <mxGeometry x="60" width="60" height="13" as="geometry">
            <mxRectangle width="60" height="13" as="alternateBounds" />
          </mxGeometry>
        </mxCell>
        <mxCell id="0VALnksqHh3Q-iaRCEPl-29" value="" style="shape=partialRectangle;html=1;whiteSpace=wrap;connectable=0;strokeColor=inherit;overflow=hidden;fillColor=none;top=0;left=0;bottom=0;right=0;pointerEvents=1;fontSize=14;" vertex="1" parent="0VALnksqHh3Q-iaRCEPl-26">
          <mxGeometry x="120" width="40" height="13" as="geometry">
            <mxRectangle width="40" height="13" as="alternateBounds" />
          </mxGeometry>
        </mxCell>
        <mxCell id="0VALnksqHh3Q-iaRCEPl-32" value="&lt;i&gt;Future Suitability per rcp&lt;/i&gt;" style="text;html=1;align=center;verticalAlign=middle;whiteSpace=wrap;rounded=0;" vertex="1" parent="1">
          <mxGeometry x="65" y="80" width="150" height="30" as="geometry" />
        </mxCell>
        <mxCell id="0VALnksqHh3Q-iaRCEPl-33" value="Step 1: Calculating Future Suitability per County" style="rounded=1;whiteSpace=wrap;html=1;fillColor=#6d8764;strokeColor=#3A5431;fontColor=#ffffff;" vertex="1" parent="1">
          <mxGeometry x="31" y="40" width="309" height="20" as="geometry" />
        </mxCell>
        <mxCell id="0VALnksqHh3Q-iaRCEPl-34" value="Calculate county level suitable area for each crop in acres" style="rounded=1;whiteSpace=wrap;html=1;fillColor=#dae8fc;strokeColor=#6c8ebf;" vertex="1" parent="1">
          <mxGeometry x="470" y="290" width="130" height="60" as="geometry" />
        </mxCell>
        <mxCell id="0VALnksqHh3Q-iaRCEPl-35" style="edgeStyle=orthogonalEdgeStyle;rounded=0;orthogonalLoop=1;jettySize=auto;html=1;exitX=1;exitY=0.5;exitDx=0;exitDy=0;entryX=0;entryY=0.5;entryDx=0;entryDy=0;" edge="1" parent="1" source="0VALnksqHh3Q-iaRCEPl-18" target="0VALnksqHh3Q-iaRCEPl-34">
          <mxGeometry relative="1" as="geometry" />
        </mxCell>
        <mxCell id="0VALnksqHh3Q-iaRCEPl-36" value="Step 2: Calculating Future Variable Values per Scenario" style="rounded=1;whiteSpace=wrap;html=1;fillColor=#6d8764;strokeColor=#3A5431;fontColor=#ffffff;" vertex="1" parent="1">
          <mxGeometry x="31" y="410" width="310" height="20" as="geometry" />
        </mxCell>
      </root>
    </mxGraphModel>
  </diagram>
</mxfile>
